<svg width="400" height="490" viewBox="0 0 400 490" fill="none" xmlns="http://www.w3.org/2000/svg">
<path opacity="0.08" d="M199.987 490C290.432 490 363.753 473.747 363.753 453.697C363.753 433.648 290.432 417.395 199.987 417.395C109.541 417.395 36.2207 433.648 36.2207 453.697C36.2207 473.747 109.541 490 199.987 490Z" fill="black"/>
<path d="M397.214 169.725C397.214 169.002 397.169 168.285 397.136 167.569C397.104 166.852 397.078 166.316 397.046 165.697C397.046 165.219 396.994 164.748 396.955 164.277C396.955 163.915 396.91 163.554 396.884 163.199C396.839 162.508 396.781 161.817 396.723 161.127C396.665 160.436 396.594 159.7 396.523 158.99C396.452 158.28 396.387 157.654 396.31 156.989C396.232 156.324 396.168 155.775 396.09 155.169C396.013 154.562 395.935 153.936 395.845 153.316C395.754 152.696 395.696 152.225 395.612 151.683L395.516 151.038C395.419 150.444 395.328 149.85 395.225 149.256C395.122 148.662 395.051 148.197 394.954 147.668C394.857 147.139 394.754 146.532 394.644 145.97C394.566 145.544 394.482 145.125 394.398 144.679L394.166 143.524L394.03 142.878C393.921 142.33 393.804 141.781 393.675 141.232C393.678 141.181 393.678 141.129 393.675 141.077C393.578 140.626 393.475 140.167 393.365 139.716C393.236 139.147 393.107 138.586 392.965 138.024C392.823 137.463 392.732 137.069 392.61 136.598C392.487 136.127 392.384 135.688 392.261 135.242C392.255 135.202 392.244 135.163 392.229 135.126C392.061 134.481 391.893 133.835 391.712 133.19C391.531 132.544 391.376 131.97 391.196 131.369C390.95 130.524 390.698 129.678 390.44 128.839L390.014 127.47C389.584 126.115 389.134 124.77 388.664 123.436C388.019 121.564 387.328 119.712 386.611 117.865C386.086 116.536 385.55 115.217 385.003 113.909C384.457 112.6 383.912 111.352 383.37 110.165C382.814 108.917 382.24 107.682 381.646 106.46C381.058 105.233 380.457 104.013 379.831 102.8C379.521 102.193 379.185 101.586 378.888 100.986C378.591 100.385 378.243 99.7787 377.926 99.1849C377.61 98.591 377.281 97.9842 376.938 97.3904C376.596 96.7965 376.293 96.2027 375.931 95.6088C375.569 95.015 375.285 94.4276 374.904 93.8401C374.523 93.2527 374.207 92.6653 373.852 92.0844C373.497 91.5035 373.206 91.0129 372.87 90.4836L372.715 90.2318C372.399 89.7219 372.07 89.2119 371.753 88.7085L371.643 88.5342C371.288 87.979 370.933 87.4304 370.572 86.8817C370.21 86.333 369.816 85.7392 369.435 85.1711C369.054 84.6031 368.673 84.0415 368.279 83.4735L367.104 81.7887C366.723 81.2465 366.336 80.7108 365.942 80.1685L365.864 80.0524L364.696 78.4644C363.878 77.3628 363.047 76.2698 362.203 75.1853C361.777 74.6431 361.357 74.1009 360.912 73.5651C360.051 72.485 359.19 71.4092 358.329 70.3377C357.037 68.7497 355.688 67.1876 354.28 65.6514C352.451 63.5987 350.565 61.5826 348.624 59.6031C347.143 58.1744 345.656 56.7392 344.162 55.2976L342.651 53.8711C340.662 52.0056 338.622 50.1853 336.549 48.4102L336 47.939C335.09 47.1708 334.173 46.4027 333.243 45.6474L331.745 44.4275L331.532 44.2596L330.085 43.1107L329.93 42.9945L328.323 41.7551L326.657 40.4641L324.971 39.2183C324.409 38.8052 323.841 38.3985 323.273 37.9919C322.705 37.5852 322.117 37.2173 321.562 36.8042C321.007 36.391 320.413 36.0102 319.838 35.6165L318.094 34.4416L316.338 33.2862L314.659 32.2082L312.541 30.9172L310.985 29.9684L309.048 28.7936L307.356 27.8124C306.71 27.4638 306.136 27.1153 305.516 26.7732C304.896 26.431 304.289 26.0889 303.669 25.7533L301.81 24.7528C299.93 23.7522 298.032 22.8163 296.121 21.848C294.862 21.2413 293.596 20.6345 292.324 20.0471C288.398 18.2397 284.408 16.5593 280.352 15.0058L278.57 14.3603L276.988 13.7858C275.792 13.3555 274.595 12.938 273.398 12.5335L271.848 12.0171C271.338 11.8493 270.828 11.6815 270.318 11.5266C269.672 11.3265 269.072 11.1263 268.445 10.9392C267.819 10.752 267.083 10.5196 266.392 10.2937L264.326 9.69335H264.294L262.705 9.25441L261.569 8.95103C261.104 8.82193 260.632 8.69929 260.167 8.5831L258.23 8.09252C257.449 7.89887 256.661 7.71168 255.88 7.53094C255.234 7.37602 254.55 7.2211 253.885 7.07909C253.22 6.93708 252.632 6.80153 251.999 6.67243C249.201 6.10439 246.386 5.58369 243.553 5.11033L242.346 4.92314C241.932 4.85213 241.519 4.78758 241.099 4.72949C240.454 4.62621 239.776 4.53584 239.111 4.44547L238.084 4.30992C236.941 4.155 235.792 4.01299 234.642 3.88389C233.725 3.78061 232.802 3.68379 231.879 3.59987L230.148 3.4385C229.464 3.37395 228.773 3.32231 228.088 3.27067L225.899 3.11575L223.923 2.99956H223.704C220.566 2.83819 217.402 2.75427 214.231 2.75427C105.144 2.75427 -19.5172 90.4448 6.07888 230.55C23.0547 323.456 120.415 392.717 199.522 453.691L202.75 451.328L204.526 450.037L207.832 447.617L211.971 444.564C213.353 443.55 214.722 442.53 216.097 441.504C220.376 438.315 224.621 435.109 228.831 431.886C229.967 431.015 231.097 430.15 232.227 429.304C233.949 427.987 235.65 426.664 237.328 425.334L240.396 422.927L243.314 420.616C244.438 419.725 245.555 418.83 246.666 417.931C247.492 417.268 248.316 416.601 249.139 415.93L252.083 413.535L252.496 413.199L255.699 410.546L256.797 409.636L259.832 407.099L260.142 406.834C261.373 405.802 262.6 404.762 263.822 403.717C265.081 402.645 266.34 401.567 267.587 400.489L267.69 400.405L270.919 397.565L271.958 396.655C272.922 395.794 273.882 394.934 274.838 394.073L275.387 393.582C276.375 392.705 277.356 391.814 278.338 390.923C278.712 390.587 279.087 390.278 279.461 389.897C280.185 389.251 280.908 388.606 281.624 387.921C282.27 387.36 282.864 386.785 283.478 386.204C284.091 385.623 284.646 385.126 285.228 384.578L286.835 383.067C287.623 382.325 288.411 381.583 289.192 380.827L290.109 379.95L292.95 377.206L293.596 376.561L295.791 374.405C296.502 373.708 297.208 373.004 297.909 372.294C298.342 371.868 298.768 371.435 299.201 371.003C299.808 370.396 300.402 369.789 300.989 369.183C301.687 368.479 302.378 367.776 303.049 367.066C303.43 366.685 303.798 366.304 304.16 365.923C304.909 365.148 305.649 364.374 306.381 363.599C306.814 363.154 307.24 362.702 307.673 362.25C308.34 361.549 309.001 360.843 309.655 360.133C310.128 359.629 310.593 359.126 311.05 358.622C311.766 357.848 312.483 357.067 313.187 356.286C313.529 355.918 313.865 355.543 314.194 355.169C314.853 354.455 315.499 353.734 316.131 353.007C316.713 352.361 317.287 351.716 317.855 351.07C318.224 350.657 318.585 350.25 318.934 349.837C319.795 348.856 320.656 347.868 321.517 346.874C322.569 345.648 323.609 344.422 324.635 343.182L326.179 341.323L326.941 340.394C327.341 339.912 327.735 339.428 328.122 338.941C329.285 337.508 330.434 336.071 331.57 334.629C331.945 334.158 332.319 333.68 332.688 333.203C334.517 330.862 336.314 328.495 338.079 326.102C338.564 325.457 339.041 324.811 339.513 324.166L340.933 322.229C341.405 321.584 341.876 320.938 342.341 320.293C342.806 319.647 343.277 319.002 343.736 318.318C344.194 317.633 344.659 317.027 345.117 316.336C346.105 314.909 347.055 313.47 348.043 312.031C348.424 311.456 348.805 310.888 349.179 310.314C349.554 309.739 350.057 308.984 350.47 308.319L350.516 308.248C350.948 307.602 351.375 306.918 351.807 306.247C352.24 305.576 352.679 304.878 353.099 304.194C353.518 303.51 353.957 302.826 354.39 302.135C354.823 301.444 355.242 300.754 355.681 300.063L356.973 297.978C358.226 295.887 359.455 293.78 360.66 291.659C361.069 290.949 361.469 290.239 361.861 289.529C363.936 285.819 365.942 282.056 367.879 278.239C368.163 277.664 368.454 277.09 368.744 276.515C369.358 275.282 369.971 274.037 370.572 272.791C370.83 272.262 371.082 271.739 371.327 271.209C371.572 270.68 371.773 270.273 371.973 269.802C373.032 267.556 374.065 265.29 375.072 263.005C375.408 262.243 375.718 261.475 376.073 260.707C376.428 259.939 376.719 259.235 377.022 258.5C378.068 256.012 379.086 253.503 380.076 250.973C380.335 250.332 380.587 249.686 380.832 249.037C381.135 248.249 381.439 247.455 381.736 246.661C384.693 238.782 387.367 230.666 389.756 222.313C390.001 221.461 390.24 220.603 390.479 219.731C391.663 215.428 392.769 211.075 393.798 206.673C396.435 194.541 397.582 182.134 397.214 169.725ZM300.208 218.343C298.187 230.905 293.644 242.928 286.853 253.689C280.061 264.449 271.162 273.725 260.69 280.956C243.235 295.665 221.673 304.643 198.934 306.673C148.368 310.778 106.332 258.009 99.4362 212.592C90.1379 151.154 139.412 89.6832 203.893 94.0467C215.285 94.7963 226.468 97.4609 236.973 101.928C281.082 120.719 308.37 169.337 300.208 218.343Z" fill="#F4F4FF"/>
<path d="M393.738 206.673C392.713 211.092 391.607 215.445 390.419 219.731C390.18 220.59 389.941 221.448 389.696 222.313C387.32 230.661 384.646 238.773 381.676 246.648C381.379 247.442 381.075 248.236 380.772 249.024C380.527 249.673 380.275 250.319 380.017 250.96C379.031 253.495 378.013 256.004 376.962 258.487C376.646 259.222 376.317 259.965 376.013 260.694C375.71 261.424 375.367 262.23 375.012 262.992C374.005 265.277 372.972 267.543 371.913 269.789C371.693 270.26 371.474 270.732 371.267 271.196C371.06 271.661 370.77 272.249 370.512 272.778C369.911 274.024 369.298 275.269 368.684 276.502C368.394 277.077 368.103 277.651 367.819 278.226C365.882 282.043 363.876 285.806 361.801 289.516C361.409 290.226 361.009 290.936 360.6 291.646C359.395 293.767 358.166 295.874 356.913 297.965L355.621 300.05C355.202 300.741 354.776 301.431 354.33 302.122C353.884 302.813 353.478 303.497 353.039 304.181C352.599 304.865 352.173 305.55 351.747 306.234C351.321 306.918 350.895 307.57 350.456 308.235L350.41 308.306C349.978 308.951 349.539 309.636 349.119 310.301C348.699 310.965 348.364 311.443 347.983 312.018C347.02 313.457 346.045 314.896 345.058 316.323C344.599 316.968 344.141 317.646 343.676 318.305C343.211 318.963 342.752 319.596 342.281 320.28C341.81 320.964 341.345 321.571 340.873 322.216L339.453 324.153C338.981 324.798 338.504 325.444 338.019 326.089C336.254 328.469 334.457 330.836 332.628 333.19C332.259 333.667 331.885 334.145 331.51 334.616C330.374 336.062 329.225 337.5 328.062 338.928C327.675 339.415 327.281 339.899 326.881 340.381L326.119 341.31L324.575 343.169C323.549 344.409 322.509 345.635 321.457 346.861C320.596 347.855 319.735 348.843 318.874 349.824C318.525 350.237 318.164 350.644 317.795 351.057C317.227 351.703 316.653 352.348 316.071 352.994C315.49 353.639 314.78 354.44 314.134 355.156C313.805 355.53 313.489 355.905 313.127 356.273C312.423 357.054 311.706 357.835 310.99 358.609C310.533 359.113 310.068 359.616 309.595 360.12C308.936 360.83 308.275 361.536 307.613 362.237C307.193 362.689 306.767 363.141 306.321 363.586C305.589 364.361 304.849 365.135 304.1 365.91C303.738 366.291 303.37 366.672 302.989 367.052C302.344 367.763 301.627 368.466 300.929 369.17C300.342 369.776 299.748 370.383 299.141 370.99C298.715 371.422 298.288 371.855 297.849 372.281C297.143 372.991 296.437 373.695 295.731 374.392L293.536 376.548L292.89 377.193L290.049 379.937L289.203 380.853C288.422 381.608 287.634 382.351 286.846 383.093L285.239 384.604C284.657 385.152 284.076 385.694 283.489 386.23C282.901 386.766 282.255 387.386 281.635 387.947C280.919 388.593 280.196 389.277 279.472 389.922C279.098 390.277 278.723 390.613 278.349 390.949C277.367 391.84 276.412 392.73 275.398 393.608L274.849 394.099C273.893 394.959 272.933 395.82 271.969 396.681L270.93 397.591L267.701 400.431L267.598 400.515C266.351 401.599 265.092 402.677 263.833 403.742C262.574 404.808 261.386 405.827 260.153 406.86L259.843 407.125L256.808 409.662L255.697 410.546L252.52 413.167L252.107 413.502L249.163 415.897C248.345 416.568 247.52 417.235 246.689 417.898C245.579 418.793 244.462 419.688 243.338 420.583L240.42 422.894L237.352 425.302C235.661 426.632 233.96 427.955 232.251 429.272C231.121 430.15 229.991 431.015 228.855 431.854C224.645 435.081 220.4 438.287 216.121 441.472C214.746 442.498 213.377 443.518 211.995 444.531L207.856 447.585L204.55 450.005L202.774 451.296C207.798 424.928 214.397 398.83 219.937 372.546C225.103 347.974 229.259 323.23 232.406 298.314C242.671 294.014 252.213 288.16 260.695 280.956C271.167 273.724 280.066 264.449 286.857 253.689C293.649 242.928 298.192 230.905 300.213 218.343C308.375 169.337 281.087 120.712 236.933 101.928C234.268 68.7377 229.852 35.7112 223.702 2.98657H223.922L225.897 3.10276L228.086 3.25768C228.771 3.30932 229.462 3.36096 230.146 3.42551L231.877 3.58688C232.8 3.6708 233.723 3.76762 234.64 3.8709C235.79 4 236.939 4.14201 238.082 4.29693L239.109 4.43248C239.754 4.52285 240.439 4.61322 241.098 4.7165C241.517 4.77459 241.931 4.83914 242.344 4.91015L243.551 5.09734C246.379 5.55349 249.193 6.07634 251.991 6.6659C252.636 6.795 253.25 6.93055 253.876 7.07256C254.503 7.21457 255.206 7.36949 255.871 7.52441C256.653 7.70514 257.441 7.89234 258.222 8.08599L260.159 8.57656C260.624 8.69275 261.095 8.8154 261.56 8.9445L262.697 9.24788L264.285 9.68681H264.317L266.364 10.2807C267.057 10.4829 267.742 10.6981 268.418 10.9262C269.063 11.1134 269.67 11.3135 270.29 11.5136C270.8 11.6685 271.311 11.8363 271.821 12.0041L273.37 12.5205C274.571 12.9207 275.768 13.3382 276.961 13.7728L278.543 14.3473L280.325 14.9928C284.38 16.542 288.37 18.2224 292.296 20.0341C293.588 20.6215 294.834 21.2283 296.093 21.835C298.03 22.7775 299.903 23.7715 301.782 24.7398L303.641 25.7403C304.287 26.0759 304.875 26.3858 305.488 26.7602C306.102 27.1346 306.715 27.4508 307.328 27.7994L308.988 28.7612L310.925 29.936L312.52 30.8978L314.638 32.1888L316.317 33.2668L318.073 34.4222L319.817 35.597C320.391 35.9908 320.972 36.3845 321.541 36.7847C322.109 37.1849 322.69 37.5851 323.258 37.9918C323.826 38.3985 324.395 38.8051 324.956 39.2182L326.642 40.464L328.308 41.755L329.916 42.9944L330.07 43.1106L331.517 44.2596L331.73 44.4274L333.228 45.6474C334.158 46.4026 335.075 47.1707 335.985 47.9389L336.534 48.4101C338.605 50.1917 340.639 52.012 342.636 53.871L344.16 55.2975C345.649 56.7219 347.12 58.1721 348.57 59.6482C350.503 61.6234 352.389 63.6395 354.227 65.6965C355.602 67.2392 356.958 68.8013 358.275 70.3828C359.158 71.4414 360.019 72.5172 360.858 73.6102C361.291 74.146 361.71 74.6882 362.15 75.2304C363.011 76.3149 363.841 77.4079 364.642 78.5095L365.811 80.0975L365.888 80.2137C366.282 80.7559 366.67 81.2916 367.051 81.8338L368.226 83.5186C368.62 84.0866 369.001 84.6482 369.382 85.2162C369.763 85.7843 370.144 86.3523 370.518 86.9268C370.893 87.5013 371.235 88.0241 371.59 88.5793L371.7 88.7536C372.023 89.257 372.345 89.767 372.662 90.2769L372.817 90.5287C373.146 91.058 373.463 91.5937 373.798 92.1295C374.134 92.6653 374.502 93.2978 374.851 93.8852C375.199 94.4726 375.542 95.06 375.877 95.6539C376.213 96.2478 376.555 96.8416 376.885 97.4355C377.214 98.0293 377.531 98.6296 377.873 99.2299C378.215 99.8303 378.518 100.431 378.835 101.031C379.151 101.631 379.481 102.238 379.778 102.845C380.397 104.058 381.002 105.278 381.592 106.505C382.182 107.731 382.756 108.966 383.316 110.21C383.876 111.449 384.42 112.697 384.95 113.954C385.479 115.21 386.015 116.529 386.558 117.911C387.272 119.752 387.957 121.609 388.611 123.481C389.076 124.815 389.526 126.16 389.96 127.516L390.387 128.884C390.645 129.723 390.897 130.569 391.142 131.414C391.323 132.015 391.491 132.621 391.659 133.235C391.827 133.848 392.007 134.526 392.175 135.171C392.191 135.208 392.201 135.247 392.208 135.287C392.328 135.718 392.444 136.169 392.556 136.643C392.679 137.114 392.802 137.592 392.911 138.069C393.021 138.547 393.183 139.193 393.312 139.761C393.422 140.212 393.525 140.671 393.622 141.123C393.625 141.174 393.625 141.226 393.622 141.278C393.751 141.826 393.867 142.375 393.977 142.924L394.112 143.569L394.345 144.724C394.429 145.15 394.513 145.57 394.59 146.015C394.7 146.577 394.803 147.145 394.9 147.713C394.997 148.281 395.087 148.772 395.171 149.301C395.255 149.83 395.365 150.489 395.462 151.083L395.559 151.728C395.643 152.27 395.72 152.819 395.791 153.361C395.862 153.903 395.959 154.601 396.037 155.214C396.114 155.827 396.185 156.427 396.256 157.034C396.327 157.641 396.405 158.37 396.469 159.035C396.534 159.7 396.611 160.462 396.669 161.172C396.728 161.882 396.786 162.553 396.831 163.244C396.831 163.599 396.883 163.96 396.902 164.322C396.941 164.793 396.966 165.264 396.992 165.742C397.025 166.387 397.057 166.988 397.083 167.614C397.109 168.24 397.141 169.047 397.16 169.77C397.523 182.164 396.374 194.556 393.738 206.673Z" fill="#DDDDFF"/>
<path d="M193.444 309.642C171.354 309.642 149.322 299.314 130.81 280.111C113.033 261.656 100.287 236.572 96.7161 212.979C91.9249 181.298 102.353 147.958 124.611 123.791C134.431 113.037 146.439 104.506 159.828 98.7716C173.782 92.804 188.959 90.2504 204.098 91.3226C234.118 93.3559 261.147 107.738 280.209 131.834C299.735 156.511 308.007 188.211 302.912 218.808C300.814 231.702 296.144 244.042 289.179 255.094C282.214 266.147 273.096 275.686 262.368 283.145C244.499 298.191 222.425 307.367 199.152 309.423C197.247 309.565 195.349 309.642 193.444 309.642ZM197.396 96.5705C185.223 96.5567 173.174 99.0209 161.985 103.813C149.313 109.251 137.952 117.337 128.666 127.528C107.525 150.482 97.6201 182.131 102.192 212.179C105.595 234.668 117.792 258.654 134.813 276.302C153.733 295.932 176.43 305.75 198.739 303.936C220.905 301.975 241.925 293.219 258.926 278.865L259.139 278.697C269.296 271.657 277.93 262.643 284.525 252.194C291.121 241.744 295.543 230.074 297.527 217.878C302.363 188.831 294.492 158.68 275.928 135.21C257.848 112.346 232.206 98.7006 203.75 96.7706C201.615 96.6372 199.497 96.5705 197.396 96.5705Z" fill="#066420"/>
<path d="M393.927 131.079C388.25 111.606 379.126 93.3096 366.988 77.0571C354.683 60.5369 339.778 46.1228 322.853 34.3769C305.612 22.3839 286.531 13.2813 266.359 7.42745C246.271 1.64425 225.367 -0.789613 204.487 0.223721C186.201 1.12115 168.089 4.20713 150.538 9.41558C132.609 14.6895 115.364 22.0558 99.1583 31.3624C82.9745 40.6359 68.0448 51.9422 54.7332 65.0057C41.3264 78.1647 29.9535 93.2452 20.9881 109.751C11.7597 126.873 5.45694 145.415 2.33992 164.612C-1.09528 185.836 -0.636827 207.434 2.98563 228.607C6.60809 249.779 14.3502 270.118 24.9399 288.857C35.917 308.358 49.7612 326.173 64.8321 342.672C80.7102 360.055 98.0735 376.044 116.005 391.284C134.059 406.673 152.811 421.255 171.646 435.72C180.363 442.416 189.083 449.108 197.804 455.795C198.185 456.234 198.723 456.507 199.302 456.554C199.882 456.601 200.457 456.419 200.903 456.047C219.545 442.524 237.955 428.665 255.744 414.025C273.149 399.848 289.734 384.693 305.419 368.634C320.849 352.788 334.95 335.7 347.577 317.543C360.338 299.065 371.157 279.32 379.863 258.622C388.716 237.553 396.167 215.038 398.918 192.278C401.358 171.75 399.661 150.941 393.927 131.079ZM393.236 194.04C391.706 205.343 388.716 216.432 385.384 227.328C372.425 269.731 350.193 308.564 321.704 342.44C293.292 376.206 259.599 405.091 224.575 431.744C216.323 438.027 207.993 444.209 199.586 450.289C163.426 422.436 126.666 395.131 93.4114 363.793C61.7714 333.977 31.9717 299.566 16.6425 258.312C2.43677 220.08 1.5134 176.289 14.7699 137.669C26.7221 102.845 50.2842 72.842 79.6125 50.8693C108.899 29.0677 142.949 14.5344 178.956 8.4667C197.575 5.2219 216.561 4.63077 235.346 6.71095C255.85 9.14237 275.798 15.0034 294.358 24.049C330.46 41.5935 361.028 70.6537 378.733 106.827C387.447 124.519 392.682 143.72 394.153 163.386C394.897 173.608 394.59 183.88 393.236 194.04Z" fill="#066420"/>
<path fill-rule="evenodd" clip-rule="evenodd" d="M274.005 141.374C272.636 139.121 271.623 136.656 270.435 134.274C269.918 133.247 269.382 132.24 268.801 131.124C268.26 131.475 267.74 131.859 267.245 132.273C264.526 134.9 261.491 134.577 258.411 133.163C257.311 132.597 256.275 131.915 255.318 131.13C250.876 127.806 247.389 123.571 244.406 118.975C241.713 114.831 239.318 110.5 236.793 106.253C236.36 105.53 236.102 104.594 234.94 104.839C230.794 110.448 226.726 113.011 220.979 113.147C211.294 113.373 203.325 110.061 197.947 101.67C192.826 93.685 189.475 85.0418 188.539 75.5336C188.337 74.614 188.056 73.7134 187.699 72.8419C186.104 74.1329 184.852 75.0753 183.676 76.0694C174.623 83.9553 165.138 91.3318 155.265 98.1647C148.401 102.89 141.182 107.079 133.382 109.926C124.51 113.153 115.612 116.994 105.468 114.735C104.66 116.845 103.782 118.756 103.201 120.757C100.278 130.957 98.9938 141.557 99.3978 152.16C99.5978 158.561 101.628 164.77 105.248 170.054C114.088 183.364 126.053 193.04 140.259 199.966C148.711 204.091 157.848 206.272 167.114 207.77C176.561 209.293 186.098 209.622 195.629 209.635C205.708 209.635 215.762 209.054 225.59 206.569C241.442 202.561 255.848 195.919 267.258 183.764C274.199 176.367 280.082 168.272 284.175 158.951C285.008 157.053 286.003 155.201 286.151 152.819C280.353 150.773 276.963 146.267 274.005 141.374ZM150.674 141.626C149.816 141.836 148.917 141.815 148.069 141.564C147.222 141.314 146.456 140.843 145.85 140.199C143.765 138.043 142.829 135.378 143.565 132.453C143.887 130.983 144.602 129.626 145.633 128.529C146.664 127.431 147.973 126.633 149.421 126.218C152.65 125.243 155.446 126.657 156.602 129.8C156.902 130.759 157.118 131.741 157.247 132.737C157.312 137.882 154.968 140.767 150.68 141.645L150.674 141.626ZM191.696 178C189.359 181.272 186.227 182.738 182.114 182.415C173.59 181.769 167.553 174.959 167.611 164.593C167.856 163.424 168.257 160.991 168.902 158.622C169.206 157.804 169.771 157.11 170.51 156.647C170.809 156.495 171.137 156.411 171.472 156.401C171.807 156.391 172.14 156.455 172.447 156.589C172.741 156.751 172.996 156.976 173.195 157.246C173.393 157.517 173.53 157.828 173.597 158.157C173.661 158.983 173.255 159.842 173.061 160.687C172.467 163.269 172.015 165.851 172.499 168.543C172.843 170.827 173.894 172.945 175.506 174.6C177.117 176.254 179.207 177.362 181.481 177.767C184.193 178.29 186.382 177.535 187.938 175.256C189.144 173.615 190.001 171.744 190.455 169.759C190.91 167.774 190.952 165.717 190.579 163.715C190.489 163.198 190.172 162.734 190.056 162.217C189.585 160.19 190.23 158.848 191.812 158.448C193.059 158.131 194.395 159.093 194.757 160.829C196.158 166.987 195.435 172.79 191.703 178.019L191.696 178ZM224.111 151.45C223.391 150.042 222.952 148.508 222.82 146.932C222.516 142.717 225.654 139.489 229.877 139.425C233.803 139.36 237.393 143.369 236.98 147.571C236.814 148.963 236.398 150.315 235.753 151.56C235.241 152.695 234.414 153.659 233.37 154.339C232.327 155.019 231.11 155.385 229.864 155.394C227.101 155.498 225.28 153.755 224.117 151.47L224.111 151.45Z" fill="#FFF6F9"/>
<path fill-rule="evenodd" clip-rule="evenodd" d="M287.938 148.062C284.335 147.416 282.495 145.292 280.765 143.078C276.89 138.153 274.462 132.492 272.499 126.605C272.091 125.076 271.57 123.579 270.943 122.126C270.757 121.739 270.464 121.413 270.099 121.186C269.734 120.96 269.312 120.842 268.882 120.846C268.452 120.851 268.033 120.978 267.673 121.213C267.313 121.447 267.027 121.78 266.849 122.171C266.094 123.739 265.765 125.514 265.087 127.128C264.053 129.555 262.2 130.22 259.973 128.736C257.875 127.428 255.971 125.833 254.316 123.998C251.302 120.55 248.55 116.882 246.083 113.024C242.035 106.44 237.611 99.9593 236.307 92.0649C236.249 91.7293 236.107 91.2709 235.862 91.1354C235.179 90.6584 234.394 90.3488 233.569 90.2317C233.079 90.2317 232.362 90.9805 232.155 91.5227C231.954 92.3682 231.861 93.2358 231.878 94.1047C231.703 96.0412 231.639 97.9776 231.322 99.8819C230.547 104.665 227.5 107.479 222.883 108.138C214.611 109.319 207.289 107.26 202.433 100.005C196.118 90.5674 192.295 80.2652 193.064 68.6528C193.173 66.9422 193.91 64.8831 191.701 64.0504C189.9 63.4049 188.841 65.0122 187.717 66.0902C176.471 76.8209 164.318 86.561 151.396 95.202C141.678 101.754 131.217 106.821 119.756 109.538C117.696 110.023 115.617 110.429 113.531 110.771C111.681 111.184 109.744 110.89 108.101 109.945C108.293 109.143 108.537 108.354 108.83 107.583C109.256 106.614 109.825 105.717 110.315 104.775C113.544 98.5263 117.657 92.7943 120.97 86.5588C124.605 79.6908 130.01 73.9588 135.821 68.7238C141.747 63.4376 148.053 58.5941 154.689 54.2324C164.44 47.7763 175.616 43.7886 187.252 42.6135C196.215 41.6194 205.197 41.1288 214.191 42.3488C224.529 43.6643 234.67 46.2173 244.398 49.9528C247.348 51.1335 250.129 52.6984 252.67 54.6068C256.337 57.3437 259.734 60.455 263.156 63.5017C265.767 65.8799 268.015 68.629 269.826 71.6608C275.747 81.2916 281.346 91.0838 285.917 101.438C288.627 107.59 290.148 114.2 290.399 120.919C290.554 124.792 290.638 128.665 290.592 132.537C290.554 136.243 290.321 139.922 288.771 143.421C288.229 144.666 288.261 146.151 287.938 148.062Z" fill="#32B574"/>
<path fill-rule="evenodd" clip-rule="evenodd" d="M249.487 286.372C246.988 280.156 244.238 274.03 241.978 267.724C237.838 256.097 233.006 244.729 227.507 233.68C224.589 227.871 222.167 221.777 219.507 215.819C219.094 214.896 218.648 213.992 218.125 212.889C204.429 214.825 190.85 214.051 177.529 213.921C176.083 215.413 176.076 217.039 175.766 218.582C174.63 224.295 173.422 229.988 172.318 235.7C171.027 242.452 169.735 249.211 168.56 255.988C167.507 262.075 166.72 268.208 165.661 274.288C164.311 281.937 162.904 289.58 161.509 297.229C173.086 302.774 185.717 305.588 198.96 304.517C217.068 302.907 234.505 296.886 249.746 286.979L249.487 286.372ZM206.748 265.503C206.309 266.269 205.792 266.988 205.204 267.646C203.093 270.06 199.89 271.519 196.468 268.44C191.625 264.102 186.194 260.358 182.953 254.491C182.026 252.996 181.22 251.429 180.544 249.805C179.987 248.323 179.682 246.759 179.64 245.176C179.589 240.568 182.223 237.76 186.827 237.986C189.752 238.128 192.639 239.128 196.177 239.877C196.671 238.824 197.23 237.802 197.85 236.817C198.699 235.484 199.712 234.264 200.865 233.183C204.739 229.91 209.795 231.053 211.778 235.662C212.465 237.283 212.867 239.01 212.966 240.768C213.444 249.637 211.016 257.815 206.748 265.503Z" fill="#FFD152"/>
<path fill-rule="evenodd" clip-rule="evenodd" d="M292.846 177.309C294.586 176.835 296.442 177.067 298.012 177.954C305.117 181.647 310.794 187.593 314.154 194.86C315.155 197.142 315.393 199.687 314.832 202.115C314.406 204.445 312.676 205.511 310.564 204.542C308.852 203.65 307.213 202.622 305.663 201.47C304.275 200.547 303.177 198.597 301.143 199.843C299.419 200.889 300.123 202.67 300.317 204.187C300.562 206.124 300.788 208.06 300.007 209.926C299.613 210.862 298.715 211.365 297.889 210.933C296.472 210.263 295.166 209.381 294.015 208.318C292.287 206.785 291.047 204.779 290.45 202.548C290.295 201.87 290.173 201.044 289.721 200.611C289.152 200.069 288.184 199.507 287.519 199.63C287.123 199.766 286.762 199.988 286.463 200.281C286.164 200.573 285.933 200.929 285.788 201.321C285.472 202.277 285.665 203.393 285.633 204.445C285.564 210.498 283.471 216.354 279.686 221.08C276.619 224.953 275.037 224.688 273.106 220.208C270.188 213.424 270.588 206.427 271.815 199.404C272.281 197.34 272.883 195.309 273.616 193.324C274.411 190.813 275.999 189.451 278.621 188.444C284.49 186.294 289.921 183.273 292.846 177.309Z" fill="#32B574"/>
<path fill-rule="evenodd" clip-rule="evenodd" d="M79.8901 144.073C80.1864 144.479 80.4457 144.911 80.665 145.364C83.1149 151.825 86.9931 157.651 92.0102 162.405C92.7194 163.074 93.2561 163.905 93.5743 164.827C93.8925 165.748 93.9828 166.734 93.8376 167.698C93.4421 171.909 92.8322 176.097 92.0102 180.246C91.5595 182.133 90.7242 183.906 89.5565 185.455C87.6193 188.141 85.1398 188.102 82.8669 185.72C81.0718 183.835 80.3873 181.479 79.9676 179.026C79.6964 177.471 79.7158 175.857 79.4252 174.301C79.0507 172.307 76.9199 171.668 75.3572 173.062C74.4403 173.882 73.7236 174.927 72.7744 175.676C72.4547 175.913 72.082 176.068 71.6887 176.127C71.2953 176.186 70.8935 176.148 70.5182 176.016C70.1429 175.885 69.8057 175.663 69.536 175.371C69.2663 175.078 69.0723 174.724 68.9711 174.34C68.1426 170.889 68.4646 167.263 69.888 164.012C70.3908 163.095 71.0585 162.279 71.8575 161.604C72.5032 160.997 73.2974 160.591 73.9625 160.016C75.312 158.848 75.6349 157.292 74.8019 156.331C74.3167 155.809 73.6662 155.47 72.9602 155.373C72.2543 155.275 71.5363 155.424 70.9276 155.795C70.0063 156.316 69.1408 156.93 68.3448 157.628C65.6973 159.881 62.7335 159.687 59.9053 158.377C58.8187 157.875 57.8791 157.103 57.1767 156.135C56.4742 155.166 56.0325 154.033 55.8938 152.845C55.7551 151.657 55.924 150.453 56.3845 149.348C56.845 148.244 57.5815 147.276 58.5235 146.538C60.3996 145.234 62.4884 144.267 64.6965 143.679C68.9647 142.317 74.7373 142.607 79.8901 144.073Z" fill="#32B574"/>
<path fill-rule="evenodd" clip-rule="evenodd" d="M85.6577 242.626C82.2936 247.571 75.972 251.134 70.2316 251.018C70.6836 249.83 71.0258 248.72 71.523 247.687C72.0202 246.654 72.9049 245.596 73.2406 244.46C73.3092 244.051 73.2943 243.633 73.1966 243.23C73.0989 242.827 72.9206 242.448 72.6724 242.116C72.4201 241.89 72.1175 241.727 71.7897 241.64C71.4618 241.554 71.1181 241.547 70.7869 241.619C69.6448 242.058 68.5281 242.56 67.4421 243.123C65.6341 243.885 65.6212 243.853 62.4895 241.884C63.3433 241.033 64.2678 240.255 65.2532 239.56C66.2928 238.915 67.6229 238.766 68.6044 238.076C68.9286 237.815 69.1878 237.483 69.3615 237.106C69.5352 236.728 69.6187 236.316 69.6053 235.9C69.4607 235.515 69.233 235.166 68.9384 234.878C68.6438 234.59 68.2895 234.371 67.9006 234.235C67.1322 233.957 66.1636 234.274 65.3177 234.235C64.4439 234.2 63.577 234.064 62.7349 233.828C62.132 233.682 61.5928 233.345 61.1981 232.866C60.8034 232.388 60.5746 231.795 60.5459 231.175C60.5846 230.059 61.592 229.103 63.1288 228.987C64.53 228.884 65.957 229.123 67.3388 228.929C68.1723 228.793 68.9251 228.351 69.4503 227.69C70.1606 226.683 69.5342 225.708 68.7594 224.901C67.2326 223.454 65.7842 221.926 64.4202 220.324C63.4387 219.085 62.8705 217.542 64.149 215.922C66.564 215.554 68.5463 216.845 70.6061 217.678C72.666 218.511 74.9582 219.117 76.1464 221.422C76.4048 221.9 76.8421 222.256 77.3626 222.412C77.883 222.568 78.4441 222.511 78.9229 222.255C79.4025 222.023 79.8018 221.653 80.0699 221.193C80.338 220.733 80.4625 220.204 80.4274 219.673C80.4039 218.266 80.5011 216.86 80.718 215.47C80.944 214.328 81.5574 213.256 82.1838 211.688C83.1007 212.579 83.8626 213.037 84.2049 213.715C84.6349 214.675 84.9325 215.689 85.0895 216.729C86.4016 223.115 86.78 229.657 86.213 236.152C85.9741 238.198 85.8385 240.296 85.6577 242.626Z" fill="#FCE8EF"/>
<path fill-rule="evenodd" clip-rule="evenodd" d="M271.843 297.765C272.179 295.073 273.954 293.337 275.853 291.787C279.129 289.115 282.482 286.533 285.913 284.041C287.527 282.867 289.548 282.305 291.453 283.086C296.832 285.294 302.23 287.514 306.828 291.213C307.143 291.595 307.383 292.033 307.538 292.504C307.37 292.93 307.338 293.356 307.112 293.53C305.394 294.821 304.529 296.358 305.407 298.559C305.73 299.379 305.874 300.26 305.827 301.141C305.769 301.935 305.304 302.696 304.878 303.871C303.115 302.632 301.752 301.528 300.248 300.644C299.344 300.15 298.339 299.871 297.31 299.83C297 299.841 296.697 299.921 296.422 300.064C296.148 300.207 295.909 300.41 295.723 300.658C295.537 300.906 295.409 301.192 295.349 301.495C295.288 301.799 295.296 302.112 295.373 302.412C295.605 303.258 296.083 304.026 296.361 304.859C296.664 305.788 296.444 306.795 295.566 307.105C295.163 307.218 294.741 307.245 294.326 307.186C293.912 307.127 293.514 306.983 293.158 306.763C292.176 306.072 291.505 304.968 290.627 304.116C290.388 303.851 290.088 303.647 289.754 303.521C289.42 303.395 289.06 303.351 288.705 303.393C288.35 303.434 288.011 303.56 287.715 303.761C287.419 303.961 287.175 304.229 287.004 304.542C286.462 305.433 286.152 306.479 285.661 307.402C285.17 308.325 284.505 309.338 283.265 309.048C282.026 308.757 281.974 307.486 281.884 306.466C281.793 305.446 281.748 304.349 281.729 303.29C281.729 302.412 281.793 301.528 281.729 300.644C281.535 296.635 279.934 295.57 276.35 297.08C274.955 297.661 273.664 298.785 271.843 297.765Z" fill="#FCE8EF"/>
<path fill-rule="evenodd" clip-rule="evenodd" d="M295.43 134.467C299.162 132.718 301.693 133.893 303.947 136.288C307.175 139.728 308.06 144.034 308.215 148.494C308.46 155.523 304.928 164.541 295.41 167.859C293.234 168.524 290.954 168.789 288.682 168.64C286.571 168.575 285.699 166.807 286.525 164.844C287.61 162.262 288.856 159.68 289.928 157.098C292.594 150.744 294.277 144.02 294.92 137.159C294.991 136.333 295.236 135.487 295.43 134.467Z" fill="#FCE8EF"/>
<path fill-rule="evenodd" clip-rule="evenodd" d="M94.7091 142.485C93.6437 142.13 93.0109 142.11 92.7333 141.794C91.4806 140.329 90.0923 138.909 89.1883 137.23C85.0686 129.555 84.7135 121.467 87.122 113.211C87.9248 110.487 89.5761 108.09 91.8357 106.369C92.6537 105.692 93.6354 105.241 94.6825 105.062C95.7296 104.883 96.8054 104.982 97.8021 105.349C99.184 105.814 100.314 106.595 100.747 108.112C101.037 109.119 101.36 110.119 101.754 111.398C97.4018 121.067 95.7681 131.627 94.7091 142.485Z" fill="#FCE8EF"/>
<path fill-rule="evenodd" clip-rule="evenodd" d="M283.555 171.674L287.965 173.804C288.766 175.495 287.966 176.748 287.042 177.761C284.281 180.731 280.804 182.943 276.943 184.184C276.201 184.436 275.277 184.139 274.464 184.1C274.421 183.846 274.408 183.588 274.425 183.332C274.483 182.99 274.604 182.662 274.78 182.363C277.303 178.994 279.849 175.635 282.419 172.287C282.606 172.023 283.013 171.945 283.555 171.674Z" fill="#F2CB07"/>
<path fill-rule="evenodd" clip-rule="evenodd" d="M95.181 158.441C89.2921 153.71 86.593 147.939 84.1328 140.935C87.3162 141.775 87.9361 144.053 89.5181 145.183L94.3416 148.636C94.5934 151.593 94.8581 154.659 95.181 158.441Z" fill="#F2CB07"/>
<path fill-rule="evenodd" clip-rule="evenodd" d="M201.078 264.987C200.484 264.909 200.057 264.987 199.786 264.806C194.472 261.004 189.455 256.911 186.226 251.057C184.935 248.72 183.708 246.383 184.799 243.311C188.118 241.846 191.082 242.73 193.762 245.105C194.801 246.035 195.699 247.152 196.784 248.023C197.072 248.224 197.405 248.352 197.754 248.394C198.104 248.436 198.458 248.391 198.785 248.263C199.113 248.135 199.404 247.929 199.633 247.662C199.861 247.395 200.021 247.075 200.096 246.732C200.264 245.699 200.167 244.621 200.296 243.582C200.507 241.284 201.501 239.128 203.112 237.476C203.869 236.795 204.834 236.39 205.85 236.327C207.038 236.268 207.619 237.366 207.832 238.437C208.144 239.807 208.324 241.203 208.368 242.607C208.332 249.848 206.369 256.948 202.679 263.179C202.215 263.84 201.678 264.447 201.078 264.987Z" fill="#F27405"/>
<path fill-rule="evenodd" clip-rule="evenodd" d="M272.771 163.256C271.531 154.523 261.697 149.933 253.955 148.959C252.488 148.781 251.004 148.809 249.545 149.043C245.545 149.312 241.757 150.933 238.8 153.638C230.315 161.791 233.957 177.774 243.856 183.028C256.344 189.664 274.773 177.322 272.771 163.256Z" fill="#F9BD70"/>
<path fill-rule="evenodd" clip-rule="evenodd" d="M135.944 144.737C135.586 142.481 134.747 140.328 133.484 138.424C132.35 136.692 130.865 135.216 129.126 134.091C127.387 132.966 125.432 132.218 123.387 131.893C121.341 131.568 119.25 131.675 117.248 132.206C115.246 132.737 113.378 133.681 111.762 134.977C106.493 139.102 104.091 146.745 104.317 153.219C104.582 160.791 109.393 168.317 117.296 169.55C124.631 170.699 131.502 168.343 135.279 161.662C138.133 156.64 138.179 150.095 135.944 144.737Z" fill="#F9BD70"/>
<path fill-rule="evenodd" clip-rule="evenodd" d="M316.603 191.641C312.946 184.524 307.32 178.606 300.395 174.593C299.207 173.896 298.038 173.167 296.611 172.302C297.677 171.656 298.407 171.166 299.194 170.74C305.981 166.951 309.945 161.057 311.237 153.563C312.412 146.76 311.618 140.143 307.253 134.411C304.67 131.022 301.5 128.699 296.921 128.989C296.159 128.986 295.398 128.937 294.642 128.841C294.558 127.808 294.461 126.975 294.423 126.143C293.983 116.55 292.569 107.165 288.43 98.3862C285.718 92.6413 282.845 86.9739 280.101 81.2483C276.345 73.2529 271.213 65.9795 264.939 59.7598C256.048 50.981 245.91 44.7455 233.674 41.815C223.872 39.4654 214.102 37.1868 203.971 37.0125C197.078 36.9189 190.187 37.3505 183.36 38.3035C172.176 39.7946 161.638 43.2351 152.275 49.619C146.147 53.7889 140.123 58.146 134.363 62.7936C126.817 68.955 120.378 76.3573 115.321 84.6824C111.898 90.2336 108.812 95.9914 105.551 101.64C105.035 102.53 104.402 103.35 103.614 104.506C102.891 103.925 102.4 103.505 101.877 103.124C96.2528 98.9865 90.4995 99.4642 85.7793 104.506C82.6605 107.843 81.0269 111.896 80.3359 116.35C79.3994 121.944 79.7125 127.675 81.2529 133.133C81.4592 134.007 81.6123 134.893 81.7113 135.786L78.9283 138.93C76.6037 138.639 74.686 138.349 72.7682 138.181C67.4615 137.688 62.1199 138.631 57.3033 140.911C54.3201 142.312 52.0085 144.436 50.8462 147.579C48.2633 154.519 51.7696 161.251 58.9628 163.362C60.4157 163.794 62.1914 163.465 63.2568 165.085C63.1116 165.771 63.0081 166.465 62.9469 167.164C62.8565 169.449 62.5078 171.779 62.8242 174.012C63.5732 179.273 66.8276 181.416 72.2258 180.564C72.7165 180.487 73.2202 180.467 73.9628 180.403C74.4535 181.739 74.8861 183.056 75.4156 184.334C76.2662 186.479 77.6244 188.386 79.3738 189.892C82.7961 192.777 87.0191 192.777 90.4672 189.892C92.2775 188.444 93.6095 186.485 94.2898 184.269C95.1745 181.236 95.7943 178.118 96.4788 175.026C96.8727 173.238 96.5886 171.269 97.9833 169.275C98.7905 170.443 99.3458 171.314 99.9592 172.141C102.168 175.116 104.344 178.124 106.629 181.042C111.033 186.671 116.774 190.821 122.327 195.185C128.759 200.177 135.954 204.1 143.635 206.804C150.292 209.159 157.141 210.932 164.104 212.103C164.975 212.225 165.838 212.4 166.687 212.626C167.611 212.897 168.844 212.587 169.419 214.162C168.03 216.389 166.649 218.829 165.06 221.134C159.894 228.583 154.173 235.489 146.651 240.712C137.63 247.005 127.596 249.794 116.599 248.503C108.127 247.502 100.14 244.552 92.1396 241.783C89.9184 241.015 89.4922 240.182 89.5568 237.775C89.5955 236.716 89.7957 235.664 89.8344 234.605C90.156 227.887 89.5696 221.156 88.091 214.595C87.7628 213.044 87.1895 211.556 86.3927 210.186C83.8099 205.965 79.206 205.932 76.5198 210.057C75.6804 211.348 75.1121 212.807 74.2727 214.459C72.4712 213.769 70.8633 213.097 69.2168 212.523C67.5842 211.863 65.8938 211.358 64.1673 211.012C60.5706 210.477 57.9297 212.51 57.4454 216.125C57.3208 217.346 57.4438 218.58 57.807 219.752C58.3178 221.279 58.9127 222.777 59.5892 224.238C56.8061 225.678 54.7786 227.602 54.4234 230.693C54.0683 233.785 56.3606 235.806 58.0201 237.871C57.652 238.549 57.3744 239.007 57.1548 239.485C55.5147 243.145 56.0958 244.978 59.6214 246.779C61.0503 247.434 62.5115 248.016 63.9994 248.522C64.1312 248.847 64.2307 249.184 64.2964 249.529C64.3287 249.871 64.1996 250.226 64.2125 250.581C64.2964 254.971 66.7437 257.036 70.9989 256.21C72.2133 255.968 73.3993 255.6 74.5374 255.113C79.7419 252.911 84.9915 250.749 88.3105 245.662C89.5374 245.992 90.5447 246.237 91.5391 246.534C98.2933 248.574 104.905 251.052 111.879 252.382C125.839 255.048 138.515 252.227 150.015 243.952C155.172 240.215 159.765 235.756 163.652 230.713C164.944 229.08 165.99 227.208 168.14 226.02C168.201 226.615 168.201 227.214 168.14 227.808C164.834 241.551 162.723 255.513 160.514 269.462C159.158 277.976 157.563 286.451 155.994 294.94C157.415 295.727 158.848 296.463 160.308 297.167C161.702 289.517 163.11 281.875 164.46 274.226C165.519 268.145 166.306 262.013 167.359 255.926C168.528 249.148 169.813 242.37 171.117 235.638C172.221 229.925 173.429 224.232 174.565 218.519C174.875 216.977 174.881 215.35 176.328 213.859C189.649 213.988 203.228 214.769 216.924 212.826C217.447 213.93 217.892 214.834 218.306 215.757C220.966 221.715 223.387 227.789 226.306 233.618C231.806 244.675 236.638 256.052 240.777 267.687C243.037 273.993 245.787 280.119 248.286 286.335L248.519 286.916C249.849 286.064 251.166 285.167 252.451 284.237C249.952 278.021 247.421 271.824 244.909 265.615C241.681 257.598 238.607 249.51 235.178 241.583C231.749 233.656 227.94 225.91 224.317 218.048C224.053 217.282 223.848 216.496 223.704 215.699C224.518 215.922 225.31 216.222 226.067 216.596C228.857 218.455 231.685 220.262 234.345 222.296C245.904 231.145 256.015 241.499 265.417 252.55C271.744 259.954 276.743 268.397 280.191 277.505C280.569 278.719 280.878 279.954 281.114 281.203C279.003 282.753 276.975 284.14 275.058 285.664C272.964 287.269 270.966 288.993 269.072 290.828C267.287 292.581 266.161 294.894 265.882 297.38C265.533 300.697 267.296 302.873 270.647 303.008C272.227 302.987 273.803 302.869 275.367 302.653C275.748 304.874 275.962 306.972 276.478 308.999C277.653 313.627 281.85 315.286 285.912 312.768C286.884 312.092 287.816 311.359 288.701 310.574C291.013 311.458 293.028 312.671 295.475 312.168C297.922 311.664 298.788 309.218 300.15 307.649C306.517 309.037 308.996 307.198 309.371 301.078C309.387 300.902 309.387 300.725 309.371 300.549C309.119 298.802 309.549 297.024 310.572 295.585C312.244 293.229 311.456 290.789 309.79 288.762C308.768 287.544 307.545 286.509 306.174 285.703C303.592 284.179 300.88 282.895 298.232 281.487C294.326 279.403 290.354 277.511 285.596 277.931C284.95 276.517 284.375 275.252 283.813 273.98C281.433 268.276 278.505 262.815 275.07 257.675C271.018 251.888 266.532 246.415 261.652 241.305C251.321 230.332 240.505 220.004 227.681 211.935C227.468 211.8 227.436 211.374 227.229 210.844C228.385 210.451 229.528 210.05 230.671 209.683C231.814 209.315 233.047 208.985 234.223 208.598C235.398 208.211 236.56 207.798 237.709 207.339C238.859 206.881 239.982 206.378 241.119 205.881C242.255 205.384 243.385 204.899 244.509 204.383C245.632 203.867 246.749 203.344 247.847 202.782C248.945 202.221 250.043 201.64 251.121 201.033C252.199 200.426 253.258 199.787 254.317 199.155C255.376 198.522 256.435 197.864 257.475 197.218C258.514 196.573 259.547 195.869 260.535 195.127C261.523 194.384 262.473 193.577 263.383 192.758C264.293 191.938 265.172 191.047 266.089 190.221C266.896 189.491 267.535 188.439 269.265 188.284C268.671 190.059 268.245 191.376 267.78 192.68C265.913 198.027 264.986 203.658 265.042 209.321C265.118 214.102 266.193 218.814 268.2 223.154C268.48 223.803 268.811 224.429 269.188 225.026C271.868 229.209 275.71 229.854 279.455 226.685C280.57 225.813 281.542 224.772 282.335 223.599C284.007 220.921 285.518 218.126 286.99 215.324C287.61 213.976 288.16 212.598 288.637 211.193C289.812 212.103 290.723 212.91 291.736 213.568C292.752 214.256 293.833 214.84 294.965 215.311C298.497 216.686 301.254 215.653 302.894 212.303C303.54 210.903 303.979 209.373 304.56 207.785C306.362 208.43 307.976 209.076 309.648 209.502C310.76 209.847 311.952 209.841 313.06 209.484C314.168 209.127 315.14 208.436 315.841 207.507C316.906 206.122 317.703 204.55 318.191 202.873C319.302 198.98 318.43 195.191 316.603 191.641ZM84.9851 236.103C84.7785 238.181 84.6493 240.273 84.4685 242.603C81.0979 247.541 74.8151 251.11 69.0359 250.994C69.4879 249.807 69.8302 248.696 70.3274 247.657C70.8246 246.618 71.7092 245.572 72.045 244.43C72.1131 244.022 72.0978 243.605 72.0001 243.203C71.9025 242.801 71.7244 242.424 71.4768 242.093C71.2254 241.867 70.924 241.704 70.5972 241.618C70.2705 241.531 69.9279 241.524 69.5977 241.596C68.4551 242.033 67.3383 242.535 66.2529 243.1C64.4385 243.855 64.4256 243.829 61.2938 241.854C62.1492 241.004 63.0736 240.227 64.0575 239.53C65.0971 238.885 66.4273 238.743 67.4088 238.052C67.7335 237.791 67.9934 237.458 68.1681 237.079C68.3428 236.701 68.4277 236.287 68.4161 235.87C68.2688 235.486 68.0394 235.138 67.7439 234.852C67.4483 234.565 67.0937 234.347 66.7049 234.211C65.9365 233.934 64.9744 234.25 64.1221 234.211C63.2482 234.177 62.3814 234.04 61.5392 233.805C60.9369 233.658 60.3982 233.32 60.0037 232.842C59.6092 232.364 59.3799 231.771 59.3502 231.152C59.389 230.035 60.3963 229.073 61.9331 228.964C63.3343 228.86 64.7678 229.099 66.1432 228.905C66.9766 228.769 67.7294 228.327 68.2546 227.666C68.9714 226.659 68.345 225.684 67.5637 224.878C66.0402 223.427 64.5919 221.899 63.2245 220.301C62.2495 219.055 61.6748 217.512 62.9533 215.899C65.3683 215.524 67.3571 216.815 69.4105 217.648C71.4638 218.481 73.7626 219.087 74.9572 221.392C75.2132 221.87 75.6489 222.227 76.1684 222.385C76.6879 222.542 77.2486 222.487 77.7273 222.231C78.2085 222.001 78.6094 221.632 78.8777 221.172C79.1461 220.711 79.2695 220.181 79.2318 219.649C79.2079 218.243 79.3051 216.837 79.5224 215.447C79.7484 214.298 80.3618 213.233 80.9946 211.664C81.905 212.549 82.667 213.013 83.0092 213.685C83.4453 214.645 83.7431 215.662 83.8938 216.706C85.1928 223.085 85.5604 229.618 84.9851 236.103ZM284.724 284.005C286.338 282.837 288.366 282.269 290.264 283.056C295.643 285.264 301.048 287.478 305.639 291.183C305.956 291.564 306.197 292.002 306.349 292.474C306.181 292.893 306.155 293.326 305.923 293.494C304.212 294.785 303.34 296.327 304.224 298.529C304.543 299.351 304.686 300.23 304.644 301.111C304.58 301.905 304.121 302.673 303.689 303.847C301.932 302.608 300.563 301.498 299.059 300.62C298.156 300.123 297.15 299.845 296.121 299.807C295.812 299.819 295.509 299.899 295.235 300.043C294.961 300.186 294.723 300.389 294.537 300.637C294.352 300.884 294.223 301.17 294.162 301.473C294.101 301.776 294.108 302.089 294.184 302.389C294.416 303.228 294.894 304.002 295.172 304.835C295.449 305.668 295.255 306.772 294.384 307.081C293.979 307.193 293.556 307.219 293.141 307.161C292.725 307.102 292.327 306.958 291.969 306.739C290.987 306.049 290.316 304.945 289.438 304.086C289.199 303.821 288.899 303.617 288.565 303.491C288.231 303.365 287.871 303.321 287.516 303.362C287.161 303.404 286.822 303.53 286.526 303.73C286.23 303.931 285.986 304.199 285.815 304.512C285.273 305.41 284.963 306.449 284.472 307.372C283.981 308.295 283.323 309.308 282.076 309.024C280.83 308.74 280.785 307.462 280.695 306.442C280.604 305.422 280.565 304.325 280.54 303.266C280.54 302.389 280.604 301.498 280.54 300.62C280.339 296.611 278.745 295.546 275.161 297.057C273.74 297.651 272.442 298.774 270.641 297.754C270.977 295.069 272.752 293.326 274.651 291.783C277.94 289.098 281.297 286.505 284.724 284.005ZM294.235 134.444C297.967 132.694 300.499 133.869 302.752 136.264C305.981 139.704 306.865 144.01 307.02 148.47C307.272 155.5 303.734 164.517 294.222 167.835C292.046 168.502 289.766 168.769 287.494 168.623C285.376 168.558 284.504 166.789 285.331 164.821C286.416 162.239 287.668 159.689 288.74 157.075C291.404 150.72 293.085 143.996 293.725 137.135C293.803 136.303 294.042 135.463 294.235 134.444ZM285.841 177.737C283.081 180.708 279.604 182.92 275.742 184.16C274.999 184.411 274.076 184.114 273.262 184.069C273.226 183.817 273.215 183.562 273.23 183.308C273.291 182.966 273.411 182.639 273.585 182.339C276.116 178.97 278.663 175.611 281.224 172.263C281.411 172.018 281.818 171.94 282.361 171.663L286.771 173.799C287.571 175.471 286.79 176.724 285.847 177.737H285.841ZM107.624 107.565C108.05 106.597 108.618 105.693 109.109 104.757C112.338 98.5024 116.451 92.7769 119.763 86.5349C123.405 79.6733 128.803 73.9413 134.615 68.6999C140.546 63.4148 146.856 58.5714 153.495 54.2085C163.245 47.7496 174.422 43.7617 186.059 42.5896C195.021 41.5891 204.003 41.0985 213.004 42.3185C223.341 43.6408 233.482 46.1958 243.211 49.9289C246.159 51.1086 248.939 52.6735 251.476 54.5829C255.144 57.3133 258.54 60.3924 261.962 63.4778C264.575 65.8553 266.822 68.6045 268.633 71.6369C274.554 81.2677 280.159 91.0599 284.73 101.414C287.441 107.568 288.96 114.181 289.205 120.901C289.367 124.774 289.444 128.647 289.399 132.52C289.367 136.225 289.134 139.898 287.584 143.397C287.036 144.623 287.074 146.101 286.745 148.012C283.142 147.366 281.308 145.243 279.571 143.035C275.697 138.11 273.269 132.449 271.306 126.562C270.9 125.02 270.382 123.51 269.756 122.044C269.568 121.659 269.274 121.335 268.91 121.11C268.545 120.885 268.124 120.768 267.695 120.773C267.266 120.778 266.848 120.904 266.488 121.137C266.128 121.37 265.842 121.7 265.662 122.089C264.9 123.664 264.578 125.439 263.893 127.053C262.866 129.48 261.007 130.145 258.779 128.654C256.685 127.344 254.781 125.752 253.123 123.922C250.112 120.472 247.36 116.804 244.89 112.949C240.841 106.39 236.424 99.9161 235.133 92.0152C235.106 91.6607 234.947 91.3292 234.687 91.0857C234.004 90.6122 233.219 90.305 232.395 90.1884C231.904 90.1884 231.188 90.9308 230.981 91.4794C230.78 92.325 230.687 93.1925 230.703 94.0614C230.529 95.9979 230.465 97.9344 230.155 99.8321C229.373 104.622 226.325 107.436 221.715 108.094C213.443 109.276 206.121 107.21 201.265 99.9612C194.944 90.5241 191.121 80.222 191.89 68.6031C191.999 66.899 192.742 64.8334 190.527 64.0071C188.726 63.3616 187.667 64.9689 186.549 66.0404C175.301 76.7733 163.146 86.5156 150.222 95.1587C140.536 101.711 130.049 106.778 118.582 109.489C116.522 109.979 114.443 110.386 112.357 110.722C110.508 111.137 108.57 110.844 106.926 109.902C107.108 109.11 107.337 108.33 107.611 107.565H107.624ZM92.6626 167.654C92.265 171.866 91.6529 176.054 90.8288 180.203C90.3794 182.088 89.5439 183.859 88.3751 185.405C86.438 188.091 83.9584 188.058 81.6855 185.677C79.8904 183.792 79.2124 181.436 78.7862 178.983C78.515 177.421 78.5344 175.813 78.2438 174.258C77.8693 172.257 75.7385 171.624 74.1758 173.018C73.2654 173.832 72.5422 174.884 71.593 175.633C71.2728 175.869 70.8996 176.024 70.5059 176.083C70.1122 176.142 69.71 176.105 69.3343 175.973C68.9586 175.841 68.6209 175.619 68.3505 175.327C68.0802 175.035 67.8854 174.681 67.7833 174.297C66.9609 170.846 67.2827 167.221 68.7002 163.969C69.203 163.052 69.8706 162.236 70.6696 161.561C71.3153 160.948 72.116 160.547 72.7811 159.973C74.1242 158.805 74.447 157.249 73.6141 156.281C73.1274 155.761 72.4765 155.425 71.771 155.328C71.0654 155.232 70.3481 155.381 69.7398 155.751C68.8169 156.27 67.9512 156.885 67.1569 157.585C64.5095 159.831 61.5521 159.644 58.7174 158.327C57.6312 157.825 56.6922 157.052 55.9904 156.083C55.2887 155.114 54.8476 153.982 54.7095 152.793C54.5715 151.605 54.7411 150.401 55.202 149.297C55.663 148.193 56.3999 147.226 57.3421 146.489C59.092 145.133 61.3584 144.307 63.5086 143.635C67.7768 142.344 73.5495 142.596 78.7023 144.068C79.0014 144.472 79.2609 144.905 79.4772 145.359C81.9271 151.821 85.8053 157.646 90.8223 162.4C91.5244 163.066 92.0567 163.891 92.3746 164.805C92.6925 165.719 92.7869 166.696 92.6497 167.654H92.6626ZM82.9769 140.911C86.1668 141.744 86.7866 144.029 88.3622 145.159L93.1857 148.612C93.4375 151.562 93.7022 154.635 94.0315 158.417C88.0974 153.679 85.3984 147.915 82.9382 140.911H82.9769ZM93.5537 142.454C92.4883 142.099 91.8555 142.086 91.5778 141.764C90.3251 140.298 88.9369 138.878 88.0393 137.206C83.9132 129.525 83.5581 121.443 85.973 113.187C86.7692 110.46 88.4218 108.061 90.6868 106.345C91.5028 105.666 92.4834 105.215 93.5298 105.036C94.5762 104.857 95.6513 104.956 96.6467 105.325C98.0285 105.79 99.165 106.571 99.5976 108.088C99.8817 109.095 100.243 110.089 100.605 111.374C96.2141 121.043 94.5739 131.603 93.515 142.454H93.5537ZM266.127 183.766C254.718 195.921 240.299 202.563 224.459 206.571C214.632 209.056 204.578 209.657 194.498 209.637C184.967 209.637 175.43 209.295 165.983 207.772C156.717 206.274 147.581 204.093 139.128 199.968C124.923 193.042 112.957 183.366 104.118 170.056C100.494 164.793 98.4511 158.605 98.2287 152.221C97.8247 141.617 99.1085 131.018 102.032 120.817C102.613 118.816 103.491 116.905 104.298 114.795C114.443 117.054 123.341 113.22 132.213 109.986C140.013 107.139 147.232 102.95 154.096 98.2248C163.969 91.392 173.454 84.0155 182.507 76.1295C183.683 75.1097 184.935 74.1931 186.53 72.9021C186.887 73.7735 187.168 74.6741 187.37 75.5938C188.306 85.1019 191.657 93.7451 196.778 101.73C202.156 110.121 210.157 113.433 219.81 113.207C225.557 113.071 229.625 110.509 233.771 104.899C234.933 104.654 235.191 105.59 235.624 106.313C238.149 110.56 240.544 114.892 243.237 119.036C246.22 123.632 249.694 127.866 254.149 131.19C255.106 131.975 256.142 132.657 257.242 133.224C260.322 134.637 263.357 134.96 266.076 132.333C266.571 131.919 267.09 131.535 267.632 131.184C268.213 132.301 268.749 133.308 269.265 134.334C270.454 136.703 271.467 139.169 272.836 141.434C275.794 146.308 279.184 150.813 285.008 152.86C284.859 155.241 283.865 157.094 283.032 158.992C278.912 168.248 273.03 176.343 266.089 183.74L266.127 183.766ZM313.704 202.13C313.277 204.467 311.547 205.532 309.435 204.564C307.725 203.671 306.088 202.644 304.541 201.491C303.146 200.562 302.048 198.612 300.021 199.858C298.297 200.91 299.001 202.692 299.194 204.209C299.44 206.145 299.666 208.082 298.884 209.941C298.491 210.883 297.593 211.387 296.766 210.954C295.352 210.28 294.046 209.399 292.892 208.34C291.164 206.806 289.922 204.8 289.321 202.569C289.166 201.891 289.05 201.059 288.598 200.633C288.023 200.097 287.061 199.529 286.396 199.658C286 199.792 285.638 200.013 285.338 200.305C285.038 200.596 284.806 200.951 284.659 201.343C284.349 202.298 284.537 203.421 284.511 204.473C284.44 210.527 282.344 216.383 278.557 221.108C275.497 224.981 273.915 224.716 271.984 220.236C269.059 213.452 269.466 206.449 270.693 199.432C271.165 197.369 271.766 195.339 272.494 193.352C273.288 190.834 274.877 189.479 277.498 188.472C283.31 186.296 288.734 183.308 291.704 177.311C293.444 176.835 295.301 177.067 296.87 177.956C303.975 181.649 309.653 187.595 313.013 194.862C314 197.144 314.228 199.683 313.665 202.104L313.704 202.13Z" fill="#066420"/>
<path fill-rule="evenodd" clip-rule="evenodd" d="M198.783 159.068C198.787 159.839 198.949 160.55 198.767 161.162C197.78 164.48 196.776 167.8 195.634 171.074C195.133 172.502 194.35 173.858 193.576 175.181C190.428 180.579 183.228 181.858 179.021 180.758C173.852 179.408 170.015 176.636 168.076 171.76C166.396 167.542 165.628 163.19 165.317 158.752C165.217 157.289 165.862 156.647 167.325 156.572C177.14 156.057 186.897 156.71 196.593 158.339C197.296 158.461 197.964 158.793 198.783 159.068Z" fill="#F9BD70"/>
<path fill-rule="evenodd" clip-rule="evenodd" d="M163.236 163.391C163.084 160.663 162.871 157.941 162.838 155.212C162.832 154.789 163.663 153.976 164.093 153.985C171.441 154.128 178.806 153.528 186.139 154.432C188.79 154.759 191.445 155.104 194.095 155.477C195.018 155.607 195.947 155.767 196.839 156.035C200.012 156.98 201.113 158.481 200.292 161.617C199.164 165.918 197.946 170.232 196.281 174.347C193.634 180.889 188.357 183.949 181.229 184.081C175.344 184.193 168.689 179.941 166.285 174.386C164.754 170.871 163.743 167.198 163.236 163.391ZM195.834 160.253C195.094 159.993 194.496 159.684 193.862 159.575C185.127 158.072 177.249 156.976 168.397 157.504C167.078 157.581 166.493 158.191 166.578 159.576C166.84 163.775 167.511 167.892 169.011 171.882C170.743 176.491 174.398 178.79 179.05 180.047C182.842 181.072 189.132 180.138 191.989 175.016C192.692 173.76 193.404 172.473 193.862 171.119C194.905 168.015 194.904 165.385 195.811 162.239C195.977 161.656 195.834 160.983 195.834 160.253Z" fill="#066420"/>
<path fill-rule="evenodd" clip-rule="evenodd" d="M229.871 139.438C233.79 139.373 237.387 143.382 236.974 147.591C236.803 148.98 236.388 150.329 235.747 151.573C235.235 152.708 234.408 153.673 233.364 154.352C232.32 155.032 231.104 155.398 229.858 155.407C227.075 155.485 225.254 153.742 224.092 151.457C223.369 150.05 222.93 148.515 222.8 146.939C222.523 142.743 225.661 139.522 229.871 139.438Z" fill="#066420"/>
<path fill-rule="evenodd" clip-rule="evenodd" d="M157.227 132.782C157.305 137.888 154.986 140.767 150.679 141.652C149.821 141.863 148.922 141.842 148.075 141.591C147.227 141.34 146.461 140.869 145.856 140.225C143.77 138.069 142.834 135.403 143.57 132.479C143.893 131.008 144.608 129.652 145.639 128.554C146.67 127.457 147.979 126.658 149.427 126.244C152.655 125.275 155.451 126.682 156.607 129.826C156.904 130.79 157.111 131.78 157.227 132.782Z" fill="#066420"/>
<path fill-rule="evenodd" clip-rule="evenodd" d="M212.965 240.781C212.866 239.023 212.464 237.295 211.777 235.675C209.794 231.066 204.725 229.923 200.864 233.196C199.711 234.276 198.698 235.497 197.849 236.83C197.229 237.815 196.67 238.837 196.176 239.89C192.638 239.141 189.751 238.14 186.826 237.998C182.229 237.773 179.588 240.58 179.639 245.189C179.681 246.772 179.986 248.336 180.543 249.817C181.219 251.442 182.025 253.009 182.952 254.504C186.181 260.371 191.624 264.115 196.467 268.453C199.889 271.519 203.092 270.073 205.203 267.659C205.791 267.001 206.308 266.282 206.747 265.516C211.015 257.815 213.443 249.637 212.965 240.781ZM202.698 263.212C202.229 263.866 201.685 264.464 201.077 264.993C200.483 264.922 200.057 264.993 199.786 264.819C194.471 261.017 189.454 256.924 186.226 251.063C184.934 248.727 183.707 246.396 184.805 243.317C188.118 241.852 191.081 242.736 193.761 245.118C194.807 246.048 195.698 247.165 196.783 248.029C197.071 248.232 197.405 248.361 197.755 248.404C198.105 248.446 198.46 248.402 198.789 248.274C199.118 248.146 199.409 247.939 199.639 247.671C199.868 247.403 200.027 247.083 200.102 246.738C200.264 245.712 200.167 244.634 200.302 243.595C200.511 241.298 201.502 239.142 203.111 237.489C203.87 236.807 204.837 236.402 205.855 236.34C207.037 236.281 207.625 237.379 207.831 238.45C208.146 239.82 208.328 241.216 208.374 242.62C208.343 249.862 206.384 256.965 202.698 263.199V263.212Z" fill="#066420"/>
</svg>
